<mxfile host="app.diagrams.net" modified="2021-08-20T00:26:22.447Z" agent="5.0 (Windows NT 10.0; Win64; x64) AppleWebKit/537.36 (KHTML, like Gecko) Chrome/92.0.4515.131 Safari/537.36 OPR/78.0.4093.147" etag="c0h79LFdQYSySrWiYwOM" version="14.9.8" type="github">
  <diagram name="Page-1" id="b5b7bab2-c9e2-2cf4-8b2a-24fd1a2a6d21">
    <mxGraphModel dx="416" dy="1130" grid="1" gridSize="10" guides="1" tooltips="1" connect="1" arrows="1" fold="1" page="1" pageScale="1" pageWidth="827" pageHeight="1169" background="none" math="0" shadow="0">
      <root>
        <mxCell id="0" />
        <mxCell id="1" parent="0" />
        <mxCell id="BnqiGJDUsNCbet7Js8eh-22" value="Azure BCP" style="shape=folder;fontStyle=1;spacingTop=0;tabWidth=40;tabHeight=14;tabPosition=left;html=1;labelPosition=center;verticalLabelPosition=top;align=left;verticalAlign=bottom;dashed=1;spacingRight=0;fillColor=#eeeeee;strokeColor=#36393d;" vertex="1" parent="1">
          <mxGeometry x="1700" y="200" width="700" height="350" as="geometry" />
        </mxCell>
        <mxCell id="BnqiGJDUsNCbet7Js8eh-1" value="Servicios Compartido" style="shape=folder;fontStyle=1;spacingTop=0;tabWidth=40;tabHeight=14;tabPosition=left;html=1;labelPosition=center;verticalLabelPosition=top;align=left;verticalAlign=bottom;dashed=1;spacingRight=0;" vertex="1" parent="1">
          <mxGeometry x="1720" y="250" width="350" height="160" as="geometry" />
        </mxCell>
        <mxCell id="BnqiGJDUsNCbet7Js8eh-2" value="APIM Open Banking" style="html=1;dropTarget=0;dashed=1;align=center;verticalAlign=middle;labelPosition=center;verticalLabelPosition=middle;rounded=0;fillColor=#b1ddf0;strokeColor=#10739e;" vertex="1" parent="1">
          <mxGeometry x="1770" y="294.5" width="230" height="40" as="geometry" />
        </mxCell>
        <mxCell id="BnqiGJDUsNCbet7Js8eh-3" value="" style="shape=module;jettyWidth=8;jettyHeight=4;fillColor=#b1ddf0;strokeColor=#10739e;" vertex="1" parent="BnqiGJDUsNCbet7Js8eh-2">
          <mxGeometry x="1" width="20" height="20" relative="1" as="geometry">
            <mxPoint x="-27" y="7" as="offset" />
          </mxGeometry>
        </mxCell>
        <mxCell id="BnqiGJDUsNCbet7Js8eh-4" value="APIM Negocio" style="html=1;dropTarget=0;dashed=1;align=center;verticalAlign=middle;labelPosition=center;verticalLabelPosition=middle;rounded=0;fillColor=#b1ddf0;strokeColor=#10739e;" vertex="1" parent="1">
          <mxGeometry x="1770" y="350" width="230" height="40" as="geometry" />
        </mxCell>
        <mxCell id="BnqiGJDUsNCbet7Js8eh-5" value="" style="shape=module;jettyWidth=8;jettyHeight=4;fillColor=#b1ddf0;strokeColor=#10739e;" vertex="1" parent="BnqiGJDUsNCbet7Js8eh-4">
          <mxGeometry x="1" width="20" height="20" relative="1" as="geometry">
            <mxPoint x="-27" y="7" as="offset" />
          </mxGeometry>
        </mxCell>
        <mxCell id="BnqiGJDUsNCbet7Js8eh-6" value="Suscripcion GRC" style="shape=folder;fontStyle=1;spacingTop=0;tabWidth=40;tabHeight=14;tabPosition=left;html=1;labelPosition=center;verticalLabelPosition=top;align=left;verticalAlign=bottom;dashed=1;spacingRight=0;" vertex="1" parent="1">
          <mxGeometry x="2090" y="250" width="290" height="160" as="geometry" />
        </mxCell>
        <mxCell id="BnqiGJDUsNCbet7Js8eh-24" style="edgeStyle=orthogonalEdgeStyle;rounded=0;orthogonalLoop=1;jettySize=auto;html=1;" edge="1" parent="1" source="BnqiGJDUsNCbet7Js8eh-7" target="BnqiGJDUsNCbet7Js8eh-10">
          <mxGeometry relative="1" as="geometry" />
        </mxCell>
        <mxCell id="BnqiGJDUsNCbet7Js8eh-7" value="API UX GRC Person" style="html=1;dropTarget=0;align=center;verticalAlign=middle;rounded=1;fillColor=#ffff88;strokeColor=#36393d;" vertex="1" parent="1">
          <mxGeometry x="2130" y="297" width="210" height="35" as="geometry" />
        </mxCell>
        <mxCell id="BnqiGJDUsNCbet7Js8eh-9" value="" style="html=1;dropTarget=0;align=center;verticalAlign=middle;rounded=1;fillColor=#ffff88;strokeColor=#36393d;" vertex="1" parent="1">
          <mxGeometry x="2315" y="300.5" width="20" height="10" as="geometry" />
        </mxCell>
        <mxCell id="BnqiGJDUsNCbet7Js8eh-25" style="edgeStyle=orthogonalEdgeStyle;rounded=0;orthogonalLoop=1;jettySize=auto;html=1;entryX=1;entryY=0.5;entryDx=0;entryDy=0;" edge="1" parent="1" source="BnqiGJDUsNCbet7Js8eh-10" target="BnqiGJDUsNCbet7Js8eh-4">
          <mxGeometry relative="1" as="geometry" />
        </mxCell>
        <mxCell id="BnqiGJDUsNCbet7Js8eh-10" value="API BS GRC Person" style="html=1;dropTarget=0;align=center;verticalAlign=middle;rounded=1;fillColor=#ffff88;strokeColor=#36393d;" vertex="1" parent="1">
          <mxGeometry x="2130" y="353" width="210" height="35" as="geometry" />
        </mxCell>
        <mxCell id="BnqiGJDUsNCbet7Js8eh-11" value="" style="html=1;dropTarget=0;align=center;verticalAlign=middle;rounded=1;fillColor=#ffff88;strokeColor=#36393d;" vertex="1" parent="1">
          <mxGeometry x="2316" y="357.5" width="20" height="10" as="geometry" />
        </mxCell>
        <mxCell id="BnqiGJDUsNCbet7Js8eh-17" value="Suscripcion APCS" style="shape=folder;fontStyle=1;spacingTop=0;tabWidth=40;tabHeight=14;tabPosition=left;html=1;labelPosition=center;verticalLabelPosition=top;align=left;verticalAlign=bottom;dashed=1;spacingRight=0;" vertex="1" parent="1">
          <mxGeometry x="1720" y="434.5" width="350" height="95.5" as="geometry" />
        </mxCell>
        <mxCell id="BnqiGJDUsNCbet7Js8eh-18" value="API BS Person V5" style="html=1;dropTarget=0;align=center;verticalAlign=middle;rounded=1;fillColor=#b1ddf0;strokeColor=#10739e;" vertex="1" parent="1">
          <mxGeometry x="1760" y="469.5" width="250" height="35" as="geometry" />
        </mxCell>
        <mxCell id="BnqiGJDUsNCbet7Js8eh-19" value="" style="html=1;dropTarget=0;align=center;verticalAlign=middle;rounded=1;fillColor=#b1ddf0;strokeColor=#10739e;" vertex="1" parent="1">
          <mxGeometry x="1984" y="473" width="20" height="10" as="geometry" />
        </mxCell>
        <mxCell id="BnqiGJDUsNCbet7Js8eh-23" style="edgeStyle=orthogonalEdgeStyle;rounded=0;orthogonalLoop=1;jettySize=auto;html=1;" edge="1" parent="1" source="BnqiGJDUsNCbet7Js8eh-2" target="BnqiGJDUsNCbet7Js8eh-7">
          <mxGeometry relative="1" as="geometry" />
        </mxCell>
        <mxCell id="BnqiGJDUsNCbet7Js8eh-30" style="edgeStyle=orthogonalEdgeStyle;rounded=0;orthogonalLoop=1;jettySize=auto;html=1;entryX=0.5;entryY=0;entryDx=0;entryDy=0;" edge="1" parent="1" source="BnqiGJDUsNCbet7Js8eh-27">
          <mxGeometry relative="1" as="geometry">
            <mxPoint x="1884.1999999999998" y="174.95799999999997" as="sourcePoint" />
            <mxPoint x="1883" y="294.5" as="targetPoint" />
            <Array as="points">
              <mxPoint x="1883" y="200" />
              <mxPoint x="1883" y="200" />
            </Array>
          </mxGeometry>
        </mxCell>
        <mxCell id="BnqiGJDUsNCbet7Js8eh-27" value="AWS - RCA Archer" style="shape=folder;fontStyle=1;spacingTop=0;tabWidth=40;tabHeight=14;tabPosition=left;html=1;labelPosition=center;verticalLabelPosition=top;align=left;verticalAlign=bottom;dashed=1;spacingRight=0;fillColor=#eeeeee;strokeColor=#36393d;" vertex="1" parent="1">
          <mxGeometry x="1700" y="120" width="700" height="54.5" as="geometry" />
        </mxCell>
        <mxCell id="BnqiGJDUsNCbet7Js8eh-26" style="edgeStyle=orthogonalEdgeStyle;rounded=0;orthogonalLoop=1;jettySize=auto;html=1;entryX=0.5;entryY=0;entryDx=0;entryDy=0;" edge="1" parent="1" source="BnqiGJDUsNCbet7Js8eh-4" target="BnqiGJDUsNCbet7Js8eh-18">
          <mxGeometry relative="1" as="geometry" />
        </mxCell>
      </root>
    </mxGraphModel>
  </diagram>
</mxfile>
